<mxfile host="65bd71144e">
    <diagram id="-Wtx2IXcBhRVkvp12cnq" name="Página-1">
        <mxGraphModel dx="1200" dy="720" grid="1" gridSize="10" guides="1" tooltips="1" connect="1" arrows="1" fold="1" page="1" pageScale="1" pageWidth="1169" pageHeight="827" math="0" shadow="0">
            <root>
                <mxCell id="0"/>
                <mxCell id="1" parent="0"/>
                <mxCell id="2" value="Menu Principal" style="whiteSpace=wrap;html=1;aspect=fixed;" vertex="1" parent="1">
                    <mxGeometry x="40" y="374" width="80" height="80" as="geometry"/>
                </mxCell>
                <mxCell id="3" value="Moneda" style="whiteSpace=wrap;html=1;aspect=fixed;" vertex="1" parent="1">
                    <mxGeometry x="200" y="240" width="80" height="80" as="geometry"/>
                </mxCell>
                <mxCell id="4" value="Temperatura" style="whiteSpace=wrap;html=1;aspect=fixed;" vertex="1" parent="1">
                    <mxGeometry x="200" y="374" width="80" height="80" as="geometry"/>
                </mxCell>
                <mxCell id="5" value="Presion" style="whiteSpace=wrap;html=1;aspect=fixed;" vertex="1" parent="1">
                    <mxGeometry x="200" y="510" width="80" height="80" as="geometry"/>
                </mxCell>
                <mxCell id="6" value="Valor Inicial" style="whiteSpace=wrap;html=1;aspect=fixed;" vertex="1" parent="1">
                    <mxGeometry x="360" y="374" width="80" height="80" as="geometry"/>
                </mxCell>
                <mxCell id="7" value="Celsius&lt;br&gt;Farenheit&lt;br&gt;Kelvin" style="whiteSpace=wrap;html=1;aspect=fixed;" vertex="1" parent="1">
                    <mxGeometry x="520" y="374" width="80" height="80" as="geometry"/>
                </mxCell>
                <mxCell id="8" value="&lt;div&gt;Dolar&lt;/div&gt;&lt;div&gt;Euro&lt;/div&gt;&lt;div&gt;Libra esterlina&lt;/div&gt;&lt;div&gt;Yen Japonés&lt;/div&gt;&lt;div&gt;Won Sul-Coreano&lt;/div&gt;" style="whiteSpace=wrap;html=1;aspect=fixed;" vertex="1" parent="1">
                    <mxGeometry x="510" y="230" width="100" height="100" as="geometry"/>
                </mxCell>
                <mxCell id="9" value="PSI&lt;br&gt;Bar&lt;br&gt;Atm" style="whiteSpace=wrap;html=1;aspect=fixed;" vertex="1" parent="1">
                    <mxGeometry x="520" y="510" width="80" height="80" as="geometry"/>
                </mxCell>
                <mxCell id="10" value="Valor Final" style="whiteSpace=wrap;html=1;aspect=fixed;" vertex="1" parent="1">
                    <mxGeometry x="680" y="374" width="80" height="80" as="geometry"/>
                </mxCell>
                <mxCell id="11" value="Celsius&lt;br&gt;Farenheit&lt;br&gt;Kelvin" style="whiteSpace=wrap;html=1;aspect=fixed;" vertex="1" parent="1">
                    <mxGeometry x="840" y="374" width="80" height="80" as="geometry"/>
                </mxCell>
                <mxCell id="12" value="&lt;div&gt;Dolar&lt;/div&gt;&lt;div&gt;Euro&lt;/div&gt;&lt;div&gt;Libra esterlina&lt;/div&gt;&lt;div&gt;Yen Japonés&lt;/div&gt;&lt;div&gt;Won Sul-Coreano&lt;/div&gt;" style="whiteSpace=wrap;html=1;aspect=fixed;" vertex="1" parent="1">
                    <mxGeometry x="830" y="230" width="100" height="100" as="geometry"/>
                </mxCell>
                <mxCell id="13" value="PSI&lt;br&gt;Bar&lt;br&gt;Atm" style="whiteSpace=wrap;html=1;aspect=fixed;" vertex="1" parent="1">
                    <mxGeometry x="840" y="510" width="80" height="80" as="geometry"/>
                </mxCell>
                <mxCell id="15" value="Resultado" style="whiteSpace=wrap;html=1;aspect=fixed;" vertex="1" parent="1">
                    <mxGeometry x="1000" y="374" width="80" height="80" as="geometry"/>
                </mxCell>
            </root>
        </mxGraphModel>
    </diagram>
</mxfile>